<svg height="64" preserveAspectRatio="none" viewBox="0 0 64 64" width="64" xmlns="http://www.w3.org/2000/svg"><path d="m20.4165039 47.3349609s3.5-7.3330078 5-9.5" fill="#ffb694"/><path d="m26.083008 49.500977 4.333496-7.666016" fill="#ffb694"/><path d="m60.75 12.3344727-11.3339844 3.6669922s-3.8339844-.6665039-5.1660156-1c-1.3339844-.3334961-6.8339844-.1669922-8.8339844-.8334961s-4.6665039-.3334961-7.6665039 2.5-4.6665039 3.3334961-5.6665039 4.3334961 1 6.3334961-.5 9.1665039c0 0 1.5004883 2.8339844 3.8334961 1.6669922s4.3330078-7.3334961 4.3330078-7.3334961l4.3344727-1.5 5.5 21.1665039s14.5-8.8339844 16.5-11.1669922l5-2.5z" fill="#ffb443"/><path d="m42.0839844 36.5009766 6.6660156 1.5-1.8339844 2z" fill="#dd8b0b"/><path d="m33.25 24.1679688s0-1.5004883 1.6660156-1.3334961c1.6679688.1669922 7.8339844 5.0004883 10.5 5.1669922 2.6679688.1665039 4.5019531-1.4995117 6.1679688 1.5s6.5.1660156 8.8320313-.6669922l.6679688 1.6665039-7.8339845 4.6669922s-8-7.5-20-11z" fill="#dd8b0b"/><path d="m39.5839844 44.9179688c-.0957031 0-.1914063-.0185547-.28125-.0546875-.2207031-.0888672-.3847656-.2773438-.4453125-.5068359l-5.2949219-20.3808595-3.2192383 1.1142578c-.5024414 1.4550781-2.3110352 6.2753906-4.5913086 7.4160156-.4790039.2392578-.9682617.3613281-1.4541016.3613281-2.1103516 0-3.3266602-2.2519531-3.3774414-2.3486328-.1166992-.21875-.1166992-.4819336 0-.7016602.7333984-1.3852539.484375-3.6601563.284668-5.4882813-.2006836-1.8369141-.3457031-3.1640625.3476563-3.8574219.4428711-.4428711.9614258-.7758789 1.6181641-1.1977539.9589844-.6152344 2.2719727-1.4584961 4.0634766-3.1508789 2.1054688-1.9882813 4.2519531-2.996582 6.3789063-2.996582.6972656 0 1.3828125.1113281 2.0410156.3305664 1.0820313.3608398 3.4941406.4638672 5.4335938.5463867 1.5214844.0649414 2.7246094.1162109 3.34375.2709961 1.1269531.2822266 4.15625.8203125 4.9316406.956543l11.15625-3.609375c.2246094-.0732422.4726563-.0351563.6660156.1030273.1933594.1376953.3085938.3588867.3144531.5966797l.3339844 18.1665039c.0039063.2890625-.15625.5556641-.4160156.6845703l-4.8730469 2.4365234c-2.390625 2.5478516-15.984375 10.8427734-16.5703125 11.2001953-.1191407.0722659-.2558595.1093753-.3906251.1093753zm-5.5-22.666504c.1210938 0 .2441406.0297852.3535156.0888672.1835938.0986328.3183594.2700195.3710938.4726563l5.2460937 20.1870117c4.5-2.7675781 13.984375-8.7675781 15.4589844-10.4873047.0664063-.0761719.1445313-.1376953.234375-.1826172l4.5761719-2.2885742-.3066407-16.6821289-10.3710938 3.3554688c-.1152344.0380859-.2363281.046875-.359375.0253906-.15625-.0273438-3.875-.6748047-5.21875-1.0112305-.4707031-.1176758-1.7792969-.1733398-3.0449219-.2275391-2.1386719-.0908203-4.5605469-.1943359-5.84375-.6220703-2.140625-.7104492-4.5366211.0878906-6.9150391 2.3339844-1.8935547 1.7880859-3.2749023 2.6748047-4.2832031 3.3222656-.6035156.3876953-1.0395508.6674805-1.3681641.9960938-.1743164.2792969-.0195313 1.6962891.0830078 2.6337891.2060547 1.8837891.4584961 4.1943359-.2617188 5.9492188.3134766.4506836.9936523 1.2524414 1.8632813 1.2524414.2509766 0 .5141602-.0683594.7832031-.203125 1.4946289-.7480469 3.2192383-4.6254883 3.9550781-6.894043.0727539-.2236328.2456055-.4003906.4682617-.4775391l4.3334961-1.5c.0800784-.0273438.1621096-.0410157.246094-.0410157z" fill="#420707"/><path d="m2.9165039 17.5014648s5.9995117 1.5 8.8330078 2.1665039 4.3339844-1.0004883 6.6669922-2.3334961 7.1660156-3 9.3330078-3.1665039 4 .1669922 3.6669922 4.3334961l.8330078 5s6.5004883 2.3334961 7.8344727 3.5c1.3320313 1.1665039 7 3.4995117 8 3.9995117s4.4980469 3 5.1660156 4.1669922c.6660156 1.1669922.1660156 4.6660156-3.8339844 3.8330078l-5.8320313-3-4.8339843-2.1660156 5.6660156 4.6660156 3 2.3339844s1.1679688 3.8339844-4 4c0 0 .5019531 2.8320313-4.3320313 3.1660156 0 0 .1660156 3.3339844-4.6679688 1.8339844l-18.3330078-7.3339844-6.8334961-6.5-6 .1669922z" fill="#ffb443"/><path d="m3.5830078 34.3349609 6.5.3330078s3.5004883 2.6669922 9.3334961 1.1669922l-3.6669922 4.8330078-4.1665039-4-8.3334961-.5z" fill="#dd8b0b"/><path d="m24.2495117 35.8349609s2.6669922-.5 3.6669922.5 5.6674805 5.1660156 5.9995117 7.6660156c.3339844 2.5 1 4 2 4s3.1679688-.6660156 3.1679688-.6660156 3.3320312-1.6679687 3.6660156-3.3339843c0 0 3.5-1.5 3.5-3.3330078l-11.3339844-8.8330078s.6679688-.1660156 1.5 0c.8339844.1660156 13.8339844 5.8330078 13.8339844 5.8330078l1.6660156-3.3330078s4.3339844 4.3330078-1.8320313 4.8330078l-11.3339843-5.3330079 8.6660156 7s1.1679688 3.6669922-4 4c0 0-.4980469 3.3320313-4.3320313 3.1660156 0 0-1.0019531 4.1669922-6.3344727 1.1669922v-4.6669922c.0000001.0000001-5.4999999-7.9990234-8.4999999-8.6660156z" fill="#dd8b0b"/><path d="m36.6054688 50.9726563c-.6992188 0-1.5097656-.1416016-2.4121094-.421875l-18.3886719-7.3535156c-.0888672-.0351563-.1694336-.0869141-.2387695-.1533203l-6.6074219-6.2841797-5.6879883.1582031c-.2109375-.0058594-.3945313-.0693359-.5390625-.2080078-.1450195-.1376953-.2280273-.328125-.2319336-.5283203l-.3330078-18.6669923c-.0039063-.2329102.1005859-.4550781.2832031-.6000977.1821289-.1459961.4194336-.1987305.6489258-.140625.0004883 0 5.9926758 1.4980469 8.8227539 2.1640625 1.8310547.4301758 3.0737305-.3085938 4.6748047-1.3525391.4580078-.2983398.9335938-.6079102 1.4482422-.9023438 2.4780273-1.4160156 7.4375-3.0932617 9.6474609-3.2626953.277832-.0214844.5507813-.0351563.8149414-.0351563.7861328 0 1.9257813.1020508 2.7402344.9838867.7631836.8266602 1.065918 2.1679688.9243164 4.0991211l.7460938 4.4780273c1.5493164.5678711 6.4165039 2.4033203 7.6606445 3.4907227.9277344.8129883 4.5 2.3969727 6.4179688 3.2480469.6640625.2939453 1.1796875.5229492 1.421875.6450195.9628906.4804688 4.6914063 3.0800781 5.4824219 4.4658203.4355469.7626953.5292969 2.2119141-.1582031 3.3955078-.6308594 1.0878906-1.7617188 1.6865234-3.1835938 1.6865234-.4042969 0-.8398438-.0478516-1.2949219-.1425781-.0664063-.0136719-.1308594-.0361328-.1894531-.0673828l-5.4882813-2.8222656 1.3066406 1.0761719 2.984375 2.3212891c.1230469.0947267.2128907.2255861.2578125.373047.0214844.0722656.5273438 1.7880859-.5 3.2207031-.6894531.9628906-1.8632813 1.5332031-3.4921875 1.7011719-.0664063.4052734-.234375.9101563-.625 1.4091797-.7382813.9433594-2 1.5283203-3.7558594 1.7421875-.0898438.4091797-.2871094.9228516-.7128906 1.3701172-.5761718.6054688-1.3984375.913086-2.4433593.913086zm-20.1098633-9.1142579 18.199707 7.2802734c1.4921875.4570313 2.734375.4453125 3.2675781-.1132813.3828125-.4023438.3710938-.9814453.3710938-.9873047-.0195313-.408203.2910156-.7568358.6972656-.7851561 1.6210938-.1123047 2.7636719-.5371094 3.3046875-1.2294922.4121094-.5292969.34375-1.0527344.3417969-1.0576172-.0371094-.2148438.0195313-.4345703.15625-.6035156s.3417969-.2695313.5585938-.2773438c1.5-.0478516 2.515625-.421875 3.015625-1.1113281.4394531-.6054688.390625-1.3544922.3339844-1.7138672l-2.7871094-2.1669922-5.6816406-4.6787109c-.2910156-.2392578-.359375-.6552734-.1621094-.9746094.1992187-.3193359.6035156-.4394531.9453124-.2890625l4.8339844 2.1660156 5.7753906 2.9697266c1.3515625.2558594 2.3046875-.0332031 2.7792969-.8466797.4023438-.6923828.3457031-1.5625.1523438-1.8994141-.5253906-.9199219-3.8066406-3.3466797-4.8496094-3.8681641-.2324219-.1162109-.7265625-.3349609-1.359375-.6152344-2.8828125-1.2792969-5.7832031-2.6020508-6.7988281-3.4907227-.8925781-.7817383-5.1328125-2.4750977-7.5932617-3.3583984-.2563477-.0917969-.4423828-.3149414-.4868164-.5830078l-.8330078-5c-.0102539-.0600586-.0126953-.121582-.0078125-.1826172.121582-1.519043-.0551758-2.546875-.5239258-3.0551758-.3203125-.3466797-.8256836-.5014648-1.6381836-.5014648-.2270508 0-.4614258.012207-.699707.0302734-2.0078125.1542969-6.7275391 1.7612305-9.0185547 3.0703125-.4882813.2788086-.9384766.5732422-1.3730469.8564453-1.3623047.8881836-2.6489258 1.7275391-4.4223633 1.7275391-.4550781 0-.9311523-.0581055-1.4155273-.171875-2.140625-.503418-6.0864258-1.4824219-7.894043-1.9321289l.3022461 16.9316406 5.2426758-.1464844c.2109375 0 .3935547.0693359.5380859.2070313z" fill="#420707"/><path d="m9.2583008 39.0224609c.2114258-1.3359375 1.5458984-3.2851563 2.8989258-2.3183594 1.3535156.9658203 5.4121094 3.4794922 2.7060547 5.9912109s-6.1845704.0000001-5.6049805-3.6728515z" fill="#ffb443"/><path d="m12.5131836 44.4580078c-1.1010742 0-2.1694336-.5107422-2.9306641-1.4013672-.9228516-1.0800781-1.3110352-2.5927734-1.0649414-4.1513672.2128906-1.3457031 1.3359375-3.2109375 2.8901367-3.2109375.4160156 0 .8149414.1347656 1.1855469.3994141l.2973633.2089844c1.2192383.8496094 3.487793 2.4306641 3.6264648 4.4101563.0639648.9169922-.3208008 1.7685547-1.1435547 2.5322266-.8554687.7939452-1.8442382 1.2128905-2.8603515 1.2128905zm-1.1054688-7.2636719c-.5146484 0-1.2646484 1.0361328-1.4086914 1.9453125-.1772461 1.1240234.0864258 2.1962891.7236328 2.9423828.9355469 1.0966797 2.4477539 1.1630859 3.6303711.0634766.4804688-.4462891.6987305-.8798828.6674805-1.3271484-.0883789-1.2646484-2.0463867-2.6289063-2.9873047-3.2851563l-.3115234-.21875c-.1132813-.0810547-.2158203-.1201172-.3139649-.1201172z" fill="#420707"/><path d="m16.7495117 47.0009766c-1.2758789-.5097656-2.3330078-4.8339844-1.1665039-7s4.3330078-4.8330078 5.6665039-4.8330078 4.3339844-.9990234 4.1669922 2.6669922c0 0 4.6669922-1 5 4 0 0 2.6655273-.1679688 2.3330078 2.6660156-.3330078 2.8339844.1669922 5.3339844.1669922 5.3339844s-1.6669922 4.3320313-6.8334961-.3339844c0 0-3.8330078 2.0009766-5.6665039-2.1660156 0-.0000001-2.0004883.3320312-3.6669922-.3339844z" fill="#ffb443"/><path d="m15.9165039 45.0009766s3.3334961 2 5.5-1.3330078l-.6669922 2.8330078s1.1669922 4.0009766 6.3334961-.1660156l-.3334961 2.1660156s.0009766 3 5.8339844 0c0 0 2.3325195 5.5009766-7.6669922 1.3339844 0 0-3.3330078.1660156-6-2.6669922 0 0-2.5.8330078-3-2.1669922z" fill="#dd8b0b"/><g fill="#420707"><path d="m30.3007813 52.4150391c-1.3022461 0-2.7675781-.6865234-4.359375-2.0410156-.4399414.1611328-1.1376953.3574219-1.9321289.3574219-1.2392578 0-2.9047852-.4658203-4.0366211-2.5927734-.2109375.015625-.4707031.0292969-.7617188.0292969-1.0371094 0-1.9589844-.1582031-2.7397461-.4707031-.8022461-.3203125-1.3071289-1.3154297-1.5898438-2.0927734-.6142578-1.6923828-.8637695-4.2792969.0415039-5.9589844 1.203125-2.234375 4.5512695-5.2275391 6.3266602-5.2275391.1928711 0 .4243164-.0244141.6767578-.0498047.3583984-.0361328.7524414-.0742188 1.1445313-.0742188 1.0229492 0 1.7773438.2685547 2.3061523.8222656.440918.4619141.6962891 1.0839844.7719727 1.890625.0644531-.0019531.1313477-.0039063.2006836-.0039063 1.2802734 0 4.1972656.4179688 4.7460938 4.1298828.5292969.0869141 1.222168.3173828 1.7485352.9082031.5561523.6259766.7749023 1.4833984.6499023 2.5478516-.3144531 2.6845703.1523438 5.0751953.1582031 5.0986328.0273438.1396484.015625.2841797-.0351563.4169922-.0371094.09375-.9174805 2.3105469-3.3164062 2.3105469zm-4.2182618-3.663086c.1821289 0 .362793.0654297.5029297.1923828 1.4277344 1.2890625 2.7124023 1.9707031 3.715332 1.9707031 1.0776367 0 1.6381836-.8183594 1.8354492-1.1835938-.1201172-.7216797-.4169922-2.8896484-.1318359-5.3183594.0732422-.6201172-.0214844-1.0830078-.28125-1.375-.3852539-.4326172-1.0869141-.4550781-1.2236328-.4550781-.3950195 0-.8051758-.3046875-.831543-.6982422-.1494141-2.2441406-1.265625-3.3818359-3.3183594-3.3818359-.4555664 0-.7753906.0654297-.7788086.0664063-.2250977.0449219-.4633789-.0136719-.6396484-.1640625s-.2744141-.3730469-.2636719-.6044922c.0249023-.546875-.0200195-1.2773438-.375-1.6484375-.2338867-.2451172-.6220703-.3583984-1.2216797-.3583984-.3408203 0-.6831055.0351563-.9951172.0664063-.3076172.03125-.5908203.0576172-.8261719.0576172-.9091797 0-3.8818359 2.3515625-5.0063477 4.4384766-.6484375 1.2041016-.4589844 3.3388672.0483398 4.7353516.3183594.8769531.6464844 1.1767578.7363281 1.2128906.7509766.2998047 1.6020508.3632813 2.1831055.3632813.628418 0 1.0795898-.0722656 1.0839844-.0732422.340332-.0585938.6704102.1259766.8081055.4384766.6416016 1.4580078 1.6196289 2.1982422 2.9057617 2.1982422.9433594 0 1.722168-.3925781 1.7299805-.3964844.1083986-.0556642.2265626-.083008.3437501-.083008z"/><path d="m20.4160156 48.0849609c-.1083984 0-.2182617-.0234375-.3227539-.0732422-.3735352-.1787109-.5322266-.6259766-.3535156-1 .144043-.3017578 3.543457-7.4121094 5.0600586-9.6035156.2358398-.3417969.7021484-.4277344 1.043457-.1894531.3408203.2353516.4257813.7021484.1899414 1.0429688-1.4492188 2.09375-4.9052734 9.3232422-4.9399414 9.3964844-.1284179.2695312-.3974609.4267577-.6772461.4267577z"/><path d="m26.0825195 50.2509766c-.1254883 0-.2519531-.03125-.3686523-.0966797-.3603516-.2041016-.487793-.6621094-.2836914-1.0224609l4.3334961-7.6660156c.203125-.3613281.6616211-.4863281 1.0219727-.2841797.3603516.2041016.487793.6621094.2836914 1.0224609l-4.3334961 7.6660156c-.1376954.2441406-.3920899.3808594-.6533204.3808594z"/></g><path d="m44.25 15.0014648c-1.3339844-.3334961-6.8339844-.1669922-8.8339844-.8334961s-4.6665039-.3334961-7.6665039 2.5-4.6665039 3.3334961-5.6665039 4.3334961 1 6.3334961-.5 9.1665039c0 0 1.5004883 2.8339844 3.8334961 1.6669922s4.3330078-7.3334961 4.3330078-7.3334961l4.3344727-1.5" fill="#ffb443"/><path d="m24.2944336 32.8710938c-1.6450195 0-2.875-1.4091797-3.3740234-2.3525391-.1166992-.21875-.1166992-.4819336 0-.7016602.7333984-1.3852539.484375-3.6601563.284668-5.4882813-.2006836-1.8369141-.3457031-3.1640625.3476563-3.8574219.4428711-.4428711.9614258-.7758789 1.6181641-1.1977539.9589844-.6152344 2.2719727-1.4584961 4.0634766-3.1508789 3.5400391-3.3427734 6.5332031-3.2944336 8.4199219-2.6660156 1.0820313.3608398 3.4941406.4638672 5.4335938.5463867 1.5214844.0649414 2.7246094.1162109 3.34375.2709961.4023438.1005859.6464844.5078125.5449219.909668-.0996094.4018555-.5117188.6435547-.9082031.5454102-.4707031-.1176758-1.7792969-.1733398-3.0449219-.2275391-2.1386719-.0908203-4.5605469-.1943359-5.84375-.6220703-2.1464844-.7143555-4.5390625.0893555-6.9150391 2.3339844-1.8935547 1.7880859-3.2749023 2.6748047-4.2832031 3.3222656-.6035156.3876953-1.0395508.6674805-1.3681641.9960938-.1743164.2792969-.0195313 1.6962891.0830078 2.6337891.2060547 1.8857422.4589844 4.1992188-.2641602 5.9555664.3950195.5830078 1.3564453 1.6914063 2.6489258 1.0429688 1.4946289-.7480469 3.2192383-4.6254883 3.9550781-6.894043.0727539-.2236328.2456055-.4003906.4682617-.4775391l4.3334961-1.5c.390625-.1328125.8183594.0722656.9550781.4638672.1347656.3911133-.0722656.8183594-.4648438.9541016l-3.9848633 1.3793945c-.5024414 1.4550781-2.3110352 6.2753906-4.5913086 7.4160156-.5131837.2568359-1.0009766.3652344-1.4575196.3652344z" fill="#420707"/><path d="m43.4160156 45.5849609c-.1679688 0-.3359375-.0556641-.4746094-.1699219l-6.5-5.3339844c-.3203125-.2626953-.3671875-.7353516-.1054688-1.0556641.2636719-.3203125.7363281-.3662109 1.0566406-.1044922l6.5 5.3339844c.3203125.2626953.3671875.7353516.1035156 1.0556641-.1484373.1806641-.3632811.2744141-.580078.2744141z" fill="#420707"/><path d="m39.0820313 48.7509766c-.1347656 0-.2714844-.0371094-.3964844-.1142578l-4-2.5c-.3515625-.2197266-.4570313-.6816406-.2382813-1.0332031s.6816406-.4580078 1.0332031-.2382813l4 2.5c.3515625.2197266.4589844.6816406.2382813 1.0332031-.140625.2275391-.3867187.3525391-.6367187.3525391z" fill="#420707"/></svg>